<svg id="Layer_1" data-name="Layer 1" xmlns="http://www.w3.org/2000/svg" xmlns:xlink="http://www.w3.org/1999/xlink" width="1920" height="1080" viewBox="0 0 1920 1080"><defs><style>.cls-1,.cls-102,.cls-106,.cls-107,.cls-12,.cls-4,.cls-49,.cls-62,.cls-66,.cls-87{fill:none;}.cls-2{clip-path:url(#clip-path);}.cls-3,.cls-36,.cls-64{fill:#fff;}.cls-4{stroke:#22beed;}.cls-106,.cls-107,.cls-12,.cls-4,.cls-49,.cls-62,.cls-66,.cls-87{stroke-width:2px;}.cls-5{opacity:0.23;isolation:isolate;}.cls-6{clip-path:url(#clip-path-3);}.cls-7{fill:#e3d3ed;}.cls-8{clip-path:url(#clip-path-6);}.cls-9{fill:#c6ebbe;}.cls-10{clip-path:url(#clip-path-9);}.cls-11{fill:#b8e6f9;}.cls-12{stroke:#773f9b;}.cls-13{fill:#eebfb9;}.cls-14{fill:#ede2b4;}.cls-15{clip-path:url(#clip-path-11);}.cls-16,.cls-23,.cls-64{font-size:15px;}.cls-100,.cls-113,.cls-16,.cls-23,.cls-36,.cls-40,.cls-54,.cls-55,.cls-85,.cls-90{font-family:Roboto Condensed;}.cls-17{fill:#c6ebbd;}.cls-18{clip-path:url(#clip-path-13);}.cls-19{fill:#e4d3ed;}.cls-20{clip-path:url(#clip-path-15);}.cls-21{fill:#de9495;}.cls-22{clip-path:url(#clip-path-17);}.cls-23{fill:#570706;}.cls-24{clip-path:url(#clip-path-19);}.cls-25{clip-path:url(#clip-path-21);}.cls-26{clip-path:url(#clip-path-23);}.cls-27{clip-path:url(#clip-path-25);}.cls-28{clip-path:url(#clip-path-27);}.cls-29{clip-path:url(#clip-path-29);}.cls-30{clip-path:url(#clip-path-31);}.cls-31{clip-path:url(#clip-path-33);}.cls-100,.cls-113,.cls-32{white-space:pre;}.cls-33{clip-path:url(#clip-path-34);}.cls-34{fill:#773f9b;}.cls-35{clip-path:url(#clip-path-35);}.cls-113,.cls-36,.cls-40,.cls-90{font-size:16px;}.cls-37{clip-path:url(#clip-path-36);}.cls-38{fill:#d4a8f0;}.cls-39{clip-path:url(#clip-path-37);}.cls-41{fill:#ade5ed;}.cls-42{clip-path:url(#clip-path-39);}.cls-43{fill:#59c9f9;}.cls-44{clip-path:url(#clip-path-41);}.cls-45{fill:#67e860;}.cls-46{clip-path:url(#clip-path-43);}.cls-47{clip-path:url(#clip-path-45);}.cls-48{clip-path:url(#clip-path-47);}.cls-49{stroke:#67e860;}.cls-50{clip-path:url(#clip-path-49);}.cls-51{clip-path:url(#clip-path-51);}.cls-52{fill:#cbcbcb;}.cls-53{clip-path:url(#clip-path-53);}.cls-100,.cls-54,.cls-55,.cls-56{font-size:23px;}.cls-54,.cls-64,.cls-85,.cls-90{font-weight:700;}.cls-56,.cls-64{font-family:Consolas;}.cls-57{clip-path:url(#clip-path-55);}.cls-58{fill:#79eac4;}.cls-59{clip-path:url(#clip-path-56);}.cls-60{clip-path:url(#clip-path-57);}.cls-61{fill:#53585f;}.cls-62{stroke:#c6ebbe;}.cls-62,.cls-66{stroke-dasharray:4 4;}.cls-63{clip-path:url(#clip-path-58);}.cls-65{clip-path:url(#clip-path-59);}.cls-66{stroke:#78eac5;}.cls-67{clip-path:url(#clip-path-60);}.cls-68{clip-path:url(#clip-path-61);}.cls-69{clip-path:url(#clip-path-62);}.cls-70{clip-path:url(#clip-path-63);}.cls-71{clip-path:url(#clip-path-64);}.cls-72{clip-path:url(#clip-path-65);}.cls-73{clip-path:url(#clip-path-66);}.cls-74{clip-path:url(#clip-path-67);}.cls-75{clip-path:url(#clip-path-68);}.cls-76{clip-path:url(#clip-path-69);}.cls-77{clip-path:url(#clip-path-70);}.cls-78{clip-path:url(#clip-path-71);}.cls-79{clip-path:url(#clip-path-72);}.cls-80{clip-path:url(#clip-path-73);}.cls-81{clip-path:url(#clip-path-74);}.cls-82{clip-path:url(#clip-path-76);}.cls-83{clip-path:url(#clip-path-77);}.cls-84{clip-path:url(#clip-path-78);}.cls-85{font-size:20px;}.cls-86{clip-path:url(#clip-path-79);}.cls-87{stroke:#85888d;}.cls-88{clip-path:url(#clip-path-80);}.cls-89{clip-path:url(#clip-path-81);}.cls-90{font-style:italic;}.cls-91{clip-path:url(#clip-path-82);}.cls-92{letter-spacing:-2px;}.cls-93{clip-path:url(#clip-path-83);}.cls-94{clip-path:url(#clip-path-84);}.cls-95{clip-path:url(#clip-path-85);}.cls-96{clip-path:url(#clip-path-86);}.cls-97{clip-path:url(#clip-path-87);}.cls-98{clip-path:url(#clip-path-88);}.cls-99{letter-spacing:-1px;}.cls-101{clip-path:url(#clip-path-90);}.cls-102{stroke:#000;stroke-width:1.12px;}.cls-102,.cls-107{stroke-miterlimit:10;}.cls-103{clip-path:url(#clip-path-92);}.cls-104{clip-path:url(#clip-path-93);}.cls-105{clip-path:url(#clip-path-94);}.cls-106,.cls-107{stroke:#a6aaa9;}.cls-108{clip-path:url(#clip-path-96);}.cls-109{clip-path:url(#clip-path-97);}.cls-110{clip-path:url(#clip-path-99);}.cls-111{clip-path:url(#clip-path-100);}.cls-112{clip-path:url(#clip-path-102);}.cls-114{clip-path:url(#clip-path-103);}.cls-115{clip-path:url(#clip-path-104);}.cls-116{clip-path:url(#clip-path-105);}.cls-117{clip-path:url(#clip-path-107);}.cls-118{clip-path:url(#clip-path-108);}</style><clipPath id="clip-path"><rect class="cls-1" width="1920" height="1080"/></clipPath><clipPath id="clip-path-3"><rect class="cls-1" x="822" y="272" width="140" height="317"/></clipPath><clipPath id="clip-path-6"><rect class="cls-1" x="506" y="272" width="307" height="317"/></clipPath><clipPath id="clip-path-9"><rect class="cls-1" x="286" y="272" width="212" height="317"/></clipPath><clipPath id="clip-path-11"><rect class="cls-1" x="296.51" y="233.2" width="658.46" height="33.35"/></clipPath><clipPath id="clip-path-13"><rect class="cls-1" x="639.81" y="277.2" width="85.79" height="68.75"/></clipPath><clipPath id="clip-path-15"><rect class="cls-1" x="829.51" y="278.24" width="124.98" height="147.15"/></clipPath><clipPath id="clip-path-17"><rect class="cls-1" x="553.51" y="172.8" width="407.92" height="48.72"/></clipPath><clipPath id="clip-path-19"><rect class="cls-1" x="639.81" y="356.61" width="85.79" height="68.75"/></clipPath><clipPath id="clip-path-21"><rect class="cls-1" x="639.81" y="434.56" width="85.79" height="68.75"/></clipPath><clipPath id="clip-path-23"><rect class="cls-1" x="639.81" y="512.47" width="85.79" height="68.75"/></clipPath><clipPath id="clip-path-25"><rect class="cls-1" x="296.51" y="277.2" width="110.85" height="68.75"/></clipPath><clipPath id="clip-path-27"><rect class="cls-1" x="296.51" y="356.6" width="110.85" height="68.75"/></clipPath><clipPath id="clip-path-29"><rect class="cls-1" x="296.51" y="434.55" width="110.85" height="68.75"/></clipPath><clipPath id="clip-path-31"><rect class="cls-1" x="296.51" y="512.46" width="110.85" height="68.75"/></clipPath><clipPath id="clip-path-33"><rect class="cls-1" x="829.51" y="435.6" width="124.98" height="146.7"/></clipPath><clipPath id="clip-path-34"><rect class="cls-1" x="1118.77" y="337.73" width="136.81" height="70.75"/></clipPath><clipPath id="clip-path-35"><rect class="cls-1" x="1118.49" y="338.73" width="137.36" height="68.75"/></clipPath><clipPath id="clip-path-36"><rect class="cls-1" x="1118.77" y="482.97" width="136.81" height="41.09"/></clipPath><clipPath id="clip-path-37"><rect class="cls-1" x="1118.49" y="483.97" width="137.36" height="39.09"/></clipPath><clipPath id="clip-path-39"><rect class="cls-1" x="553.97" y="653.1" width="193.32" height="33.35"/></clipPath><clipPath id="clip-path-41"><rect class="cls-1" x="331.64" y="742.1" width="193.32" height="33.35"/></clipPath><clipPath id="clip-path-43"><rect class="cls-1" x="776.59" y="742.1" width="198.42" height="33.35"/></clipPath><clipPath id="clip-path-45"><rect class="cls-1" x="328.29" y="791.78" width="70.61" height="44.89"/></clipPath><clipPath id="clip-path-47"><rect class="cls-1" x="459.95" y="791.78" width="70.61" height="44.89"/></clipPath><clipPath id="clip-path-49"><rect class="cls-1" x="772.11" y="791.78" width="70.61" height="44.89"/></clipPath><clipPath id="clip-path-51"><rect class="cls-1" x="903.78" y="791.78" width="70.61" height="44.89"/></clipPath><clipPath id="clip-path-53"><rect class="cls-1" x="294.78" y="591.92" width="668.4" height="33.35"/></clipPath><clipPath id="clip-path-55"><rect class="cls-1" x="1819.76" y="651.31" width="54.16" height="36.08"/></clipPath><clipPath id="clip-path-56"><rect class="cls-1" x="1819.81" y="652.31" width="54.06" height="34.08"/></clipPath><clipPath id="clip-path-57"><rect class="cls-1" x="1750.96" y="649.78" width="71.85" height="38.08"/></clipPath><clipPath id="clip-path-58"><rect class="cls-1" x="1753.96" y="652.78" width="65.85" height="32.08"/></clipPath><clipPath id="clip-path-59"><rect class="cls-1" x="1673.49" y="782.2" width="164.83" height="4"/></clipPath><clipPath id="clip-path-60"><rect class="cls-1" x="1612.43" y="763.22" width="63.19" height="41.97"/></clipPath><clipPath id="clip-path-61"><rect class="cls-1" x="1612.48" y="764.22" width="63.08" height="39.97"/></clipPath><clipPath id="clip-path-62"><rect class="cls-1" x="1694.65" y="762.22" width="96.46" height="43.97"/></clipPath><clipPath id="clip-path-63"><rect class="cls-1" x="1697.65" y="765.22" width="90.46" height="43.75"/></clipPath><clipPath id="clip-path-64"><rect class="cls-1" x="1697.9" y="769.22" width="89.96" height="30"/></clipPath><clipPath id="clip-path-65"><rect class="cls-1" x="1810.14" y="763.22" width="63.19" height="41.97"/></clipPath><clipPath id="clip-path-66"><rect class="cls-1" x="1810.2" y="764.22" width="63.08" height="39.97"/></clipPath><clipPath id="clip-path-67"><rect class="cls-1" x="1811.97" y="833.02" width="63.86" height="42.41"/></clipPath><clipPath id="clip-path-68"><rect class="cls-1" x="1812.03" y="834.02" width="63.75" height="40.41"/></clipPath><clipPath id="clip-path-69"><rect class="cls-1" x="1668.17" y="862.61" width="97.48" height="27.19"/></clipPath><clipPath id="clip-path-70"><rect class="cls-1" x="1671.42" y="869.61" width="90.98" height="13"/></clipPath><clipPath id="clip-path-71"><rect class="cls-1" x="1811.97" y="876.98" width="63.86" height="42.41"/></clipPath><clipPath id="clip-path-72"><rect class="cls-1" x="1812.03" y="877.98" width="63.75" height="40.41"/></clipPath><clipPath id="clip-path-73"><rect class="cls-1" x="1760.59" y="874.21" width="23.45" height="4"/></clipPath><clipPath id="clip-path-74"><rect class="cls-1" x="1786.81" y="849.12" width="4" height="54.17"/></clipPath><clipPath id="clip-path-76"><rect class="cls-1" x="1786.67" y="848.57" width="31.84" height="4"/></clipPath><clipPath id="clip-path-77"><rect class="cls-1" x="1786.67" y="901.18" width="31.84" height="4"/></clipPath><clipPath id="clip-path-78"><rect class="cls-1" x="1780.03" y="572.19" width="126.49" height="39.19"/></clipPath><clipPath id="clip-path-79"><rect class="cls-1" x="1587.74" y="699.37" width="310.28" height="353.68"/></clipPath><clipPath id="clip-path-80"><rect class="cls-1" x="1587.74" y="607.66" width="310.28" height="96.05"/></clipPath><clipPath id="clip-path-81"><rect class="cls-1" x="1689.13" y="619.76" width="187.64" height="31.55"/></clipPath><clipPath id="clip-path-82"><rect class="cls-1" x="1662.42" y="717.69" width="220.16" height="31.55"/></clipPath><clipPath id="clip-path-83"><rect class="cls-1" x="1811.35" y="947.22" width="63.86" height="42.41"/></clipPath><clipPath id="clip-path-84"><rect class="cls-1" x="1811.4" y="948.22" width="63.75" height="40.41"/></clipPath><clipPath id="clip-path-85"><rect class="cls-1" x="1811.35" y="991.17" width="63.86" height="42.41"/></clipPath><clipPath id="clip-path-86"><rect class="cls-1" x="1811.4" y="992.17" width="63.75" height="40.41"/></clipPath><clipPath id="clip-path-87"><rect class="cls-1" x="1719.76" y="947.22" width="97.48" height="86.37"/></clipPath><clipPath id="clip-path-88"><rect class="cls-1" x="1722.76" y="950.22" width="98.4" height="80.37"/></clipPath><clipPath id="clip-path-90"><rect class="cls-1" x="1498.6" y="165.87" width="404.47" height="3.12"/></clipPath><clipPath id="clip-path-92"><rect class="cls-1" x="1733.26" y="195.87" width="169.81" height="3.12"/></clipPath><clipPath id="clip-path-93"><rect class="cls-1" x="195.8" y="397.19" width="72.75" height="67.4"/></clipPath><clipPath id="clip-path-94"><rect class="cls-1" x="260.84" y="273.52" width="11.6" height="349.94"/></clipPath><clipPath id="clip-path-96"><rect class="cls-1" x="171.96" y="750.79" width="114.68" height="67.4"/></clipPath><clipPath id="clip-path-97"><rect class="cls-1" x="284.67" y="723.25" width="11.6" height="122.47"/></clipPath><clipPath id="clip-path-99"><rect class="cls-1" x="1017.22" y="750.79" width="114.68" height="67.4"/></clipPath><clipPath id="clip-path-100"><rect class="cls-1" x="1007.01" y="723.25" width="11.6" height="122.47"/></clipPath><clipPath id="clip-path-102"><rect class="cls-1" x="1046.71" y="563.69" width="114.68" height="68.68"/></clipPath><clipPath id="clip-path-103"><rect class="cls-1" x="990.33" y="555.68" width="227.45" height="11.6"/></clipPath><clipPath id="clip-path-104"><rect class="cls-1" x="1292.03" y="397.19" width="114.68" height="67.4"/></clipPath><clipPath id="clip-path-105"><rect class="cls-1" x="1281.14" y="369.66" width="11.6" height="122.47"/></clipPath><clipPath id="clip-path-107"><rect class="cls-1" x="773.06" y="639.37" width="41.72" height="67.4"/></clipPath><clipPath id="clip-path-108"><rect class="cls-1" x="762.17" y="634.48" width="11.6" height="77.19"/></clipPath></defs><title>base-diagram</title><g class="cls-2"><rect class="cls-3" width="1920" height="1080"/><rect class="cls-3" width="1920" height="1080"/><line class="cls-4" x1="892" y1="756.69" x2="892" y2="721.47"/><line class="cls-4" x1="427.8" y1="756.69" x2="427.8" y2="721.47"/></g><g class="cls-2"><g class="cls-5"><g class="cls-6"><g class="cls-6"><rect class="cls-7" x="822.23" y="272.81" width="139.52" height="316.18"/></g></g></g></g><g class="cls-2"><g class="cls-5"><g class="cls-8"><g class="cls-8"><rect class="cls-9" x="506.75" y="272.81" width="306.13" height="316.18"/></g></g></g></g><g class="cls-2"><g class="cls-5"><g class="cls-10"><g class="cls-10"><rect class="cls-11" x="286.63" y="272.81" width="210.43" height="316.18"/></g></g></g><line class="cls-12" x1="878.51" y1="372.3" x2="1189.2" y2="372.3"/><line class="cls-12" x1="1187.17" y1="406.69" x2="1187.17" y2="492.68"/><rect class="cls-13" x="298.43" y="121.41" width="662.33" height="101.13"/><rect class="cls-14" x="297.46" y="233.2" width="656.57" height="33.35"/></g><g class="cls-15"><text class="cls-16" transform="translate(564 256)">System Call Inte<tspan x="94.29" y="0">r</tspan><tspan x="99.03" y="0">face</tspan></text></g><g class="cls-2"><rect class="cls-17" x="640.75" y="277.2" width="83.9" height="68.75"/></g><g class="cls-18"><text class="cls-16" transform="translate(659 318)">Soc<tspan x="21.99" y="0">k</tspan><tspan x="28.61" y="0">ets</tspan></text></g><g class="cls-2"><rect class="cls-19" x="830.45" y="278.24" width="123.09" height="147.15"/></g><g class="cls-20"><text class="cls-16" transform="translate(863 358)">Scheduler</text></g><g class="cls-2"><rect class="cls-21" x="554.45" y="172.8" width="406.03" height="48.72"/></g><g class="cls-22"><text class="cls-23" transform="translate(709 204)">System Libraries</text></g><g class="cls-2"><text class="cls-16" transform="translate(569 151)">Applications</text><rect class="cls-17" x="640.75" y="356.61" width="83.9" height="68.75"/></g><g class="cls-24"><text class="cls-16" transform="translate(671 388)">T<tspan x="7.26" y="0">CP </tspan></text><text class="cls-16" transform="translate(670 408)">UDP</text></g><g class="cls-2"><rect class="cls-17" x="640.75" y="434.56" width="83.9" height="68.75"/></g><g class="cls-25"><text class="cls-16" transform="translate(677 475)">IP</text></g><g class="cls-2"><rect class="cls-17" x="640.75" y="512.47" width="83.9" height="68.75"/></g><g class="cls-26"><text class="cls-16" transform="translate(658 553)">Ethernet</text></g><g class="cls-2"><rect class="cls-11" x="297.46" y="277.2" width="108.96" height="68.75"/></g><g class="cls-27"><text class="cls-16" transform="translate(340 318)">VFS</text></g><g class="cls-2"><rect class="cls-11" x="297.46" y="356.6" width="108.96" height="68.75"/></g><g class="cls-28"><text class="cls-16" transform="translate(315 398)">File Systems</text></g><g class="cls-2"><rect class="cls-11" x="297.46" y="434.55" width="108.96" height="68.75"/></g><g class="cls-29"><text class="cls-16" transform="translate(303 475)">V<tspan x="7.87" y="0">olume Manager</tspan></text></g><g class="cls-2"><rect class="cls-11" x="297.46" y="512.46" width="108.96" height="68.75"/></g><g class="cls-30"><text class="cls-16" transform="translate(315 543)">Block D<tspan x="44.11" y="0">e</tspan><tspan x="50.83" y="0">vice </tspan></text><text class="cls-16" transform="translate(326 563)">Inte<tspan x="22.46" y="0">r</tspan><tspan x="27.2" y="0">face</tspan></text></g><g class="cls-2"><rect class="cls-19" x="830.45" y="435.6" width="123.09" height="146.7"/></g><g class="cls-31"><text class="cls-16" transform="translate(873 506)">Vi<tspan x="11.58" y="0">r</tspan><tspan class="cls-32" x="16.44" y="0">tual  </tspan></text><text class="cls-16" transform="translate(868 526)">Memo<tspan x="36.13" y="0">r</tspan><tspan x="40.9" y="0">y</tspan></text></g><g class="cls-33"><rect class="cls-34" x="1119.77" y="338.73" width="134.81" height="68.75"/></g><g class="cls-35"><text class="cls-36" transform="translate(1174 379)">CPU</text></g><g class="cls-37"><rect class="cls-38" x="1119.77" y="483.97" width="134.81" height="39.09"/></g><g class="cls-39"><text class="cls-40" transform="translate(1168 510)">DRAM</text></g><g class="cls-2"><rect class="cls-41" x="554.91" y="653.1" width="191.43" height="33.35"/></g><g class="cls-42"><text class="cls-16" transform="translate(622 676)">I/O Bridge</text></g><g class="cls-2"><line class="cls-4" x1="650.63" y1="653.1" x2="650.63" y2="624.91"/><line class="cls-4" x1="427.24" y1="722.25" x2="891.13" y2="722.25"/><line class="cls-4" x1="650.63" y1="722.05" x2="650.63" y2="686.83"/><rect class="cls-43" x="332.59" y="742.1" width="191.43" height="33.35"/></g><g class="cls-44"><text class="cls-16" transform="translate(389 765)">I/O Cont<tspan x="47.71" y="0">r</tspan><tspan x="52.21" y="0">oller</tspan></text></g><g class="cls-2"><rect class="cls-45" x="777.53" y="742.1" width="196.53" height="33.35"/></g><g class="cls-46"><text class="cls-16" transform="translate(821 765)">Network Cont<tspan x="79.18" y="0">r</tspan><tspan x="83.67" y="0">oller</tspan></text></g><g class="cls-2"><line class="cls-4" x1="363.59" y1="794.27" x2="363.59" y2="774.7"/><line class="cls-4" x1="495.26" y1="794.27" x2="495.26" y2="774.7"/><rect class="cls-11" x="329.23" y="791.78" width="68.72" height="44.89"/></g><g class="cls-47"><text class="cls-16" transform="translate(351 821)">Disk</text></g><g class="cls-2"><rect class="cls-11" x="460.9" y="791.78" width="68.72" height="44.89"/></g><g class="cls-48"><text class="cls-16" transform="translate(479 821)">Swap</text></g><g class="cls-2"><line class="cls-49" x1="807.42" y1="794.27" x2="807.42" y2="774.7"/><line class="cls-49" x1="939.08" y1="794.27" x2="939.08" y2="774.7"/><rect class="cls-9" x="773.06" y="791.78" width="68.72" height="44.89"/></g><g class="cls-50"><text class="cls-16" transform="translate(795 821)">P<tspan x="8.2" y="0">o</tspan><tspan x="15.49" y="0">r</tspan><tspan x="20.35" y="0">t</tspan></text></g><g class="cls-2"><rect class="cls-9" x="904.72" y="791.78" width="68.72" height="44.89"/></g><g class="cls-51"><text class="cls-16" transform="translate(927 821)">P<tspan x="8.2" y="0">o</tspan><tspan x="15.49" y="0">r</tspan><tspan x="20.35" y="0">t</tspan></text></g><g class="cls-2"><rect class="cls-52" x="295.73" y="591.92" width="666.5" height="33.35"/></g><g class="cls-53"><text class="cls-16" transform="translate(588 615)">D<tspan x="8.45" y="0">e</tspan><tspan x="15.17" y="0">vice Dri</tspan><tspan x="58.39" y="0">v</tspan><tspan x="64.83" y="0">ers</tspan></text></g><g class="cls-2"><text class="cls-54" transform="translate(1430.55 51.62)">THE EMP<tspan x="82.42" y="0">H</tspan><tspan x="96.54" y="0">ASIS FO</tspan><tspan x="169.73" y="0">N</tspan><tspan x="183.35" y="0">T IS ROB</tspan><tspan x="261.95" y="0">OT</tspan><tspan x="285.61" y="0">O CONDENSED BOLD </tspan></text><text class="cls-55" transform="translate(1516.13 81.62)">The item font is Robo<tspan x="191.06" y="0">t</tspan><tspan x="197.91" y="0">o Condensed Regular </tspan></text><text class="cls-56" transform="translate(1409.84 105)">The command font is Consolas Regular 15</text></g><g class="cls-57"><rect class="cls-58" x="1820.76" y="652.31" width="52.16" height="34.08"/></g><g class="cls-59"><text class="cls-16" transform="translate(1834 675)">Item</text></g><g class="cls-60"><rect class="cls-61" x="1752.96" y="651.78" width="67.85" height="34.08"/><rect class="cls-62" x="1752.96" y="651.78" width="67.85" height="34.08"/></g><g class="cls-63"><text class="cls-64" transform="translate(1758.08 672.36)">command</text></g><g class="cls-65"><line class="cls-66" x1="1674.49" y1="784.2" x2="1837.32" y2="784.2"/></g><g class="cls-67"><rect class="cls-58" x="1613.43" y="764.22" width="61.19" height="39.97"/></g><g class="cls-68"><text class="cls-16" transform="translate(1625 790)">Item A</text></g><g class="cls-69"><rect class="cls-61" x="1696.65" y="764.22" width="92.46" height="39.97"/><rect class="cls-62" x="1696.65" y="764.22" width="92.46" height="39.97"/></g><g class="cls-70"><text class="cls-64" transform="translate(1702 781)">command_A</text></g><g class="cls-71"><text class="cls-64" transform="translate(1702 799)">command_B</text></g><g class="cls-72"><rect class="cls-58" x="1811.14" y="764.22" width="61.19" height="39.97"/></g><g class="cls-73"><text class="cls-16" transform="translate(1823 790)">Item B</text></g><g class="cls-74"><rect class="cls-58" x="1812.97" y="834.02" width="61.86" height="40.41"/></g><g class="cls-75"><text class="cls-16" transform="translate(1825 860)">Item X</text></g><g class="cls-76"><rect class="cls-61" x="1670.17" y="864.61" width="93.48" height="23.19"/><rect class="cls-62" x="1670.17" y="864.61" width="93.48" height="23.19"/></g><g class="cls-77"><text class="cls-64" transform="translate(1700.92 881.19)">command</text></g><g class="cls-78"><rect class="cls-58" x="1812.97" y="877.98" width="61.86" height="40.41"/></g><g class="cls-79"><text class="cls-16" transform="translate(1825 904)">Item Z</text></g><g class="cls-80"><line class="cls-66" x1="1761.59" y1="876.21" x2="1783.04" y2="876.21"/></g><g class="cls-81"><g class="cls-2"><line class="cls-66" x1="1788.81" y1="902.29" x2="1788.81" y2="850.12"/></g></g><g class="cls-82"><line class="cls-66" x1="1787.67" y1="850.57" x2="1817.51" y2="850.57"/></g><g class="cls-83"><line class="cls-66" x1="1787.67" y1="903.18" x2="1817.51" y2="903.18"/></g><g class="cls-84"><text class="cls-85" transform="translate(1787 599)">D<tspan x="11.24" y="0">I</tspan><tspan x="16.62" y="0">A</tspan><tspan x="27.59" y="0">GRAM KEY</tspan></text></g><g class="cls-86"><rect class="cls-87" x="1589.74" y="701.37" width="306.28" height="349.68"/></g><g class="cls-88"><rect class="cls-87" x="1589.74" y="609.66" width="306.28" height="92.05"/></g><g class="cls-89"><text class="cls-90" transform="translate(1695 642)">COM<tspan x="28.59" y="0">M</tspan><tspan x="39.82" y="0">AND APPLIES </tspan><tspan x="126.35" y="0">T</tspan><tspan x="133.6" y="0">O </tspan><tspan x="146.08" y="0">I</tspan><tspan x="149.94" y="0">TEM</tspan></text></g><g class="cls-91"><text class="cls-90" transform="translate(1668 740)">COM<tspan x="28.59" y="0">M</tspan><tspan x="39.82" y="0">ANDS FOR MU</tspan><tspan class="cls-92" x="126.76" y="0">L</tspan><tspan x="131.86" y="0">TIPLE </tspan><tspan x="170.41" y="0">I</tspan><tspan x="174.27" y="0">TEMS</tspan></text></g><g class="cls-93"><rect class="cls-58" x="1812.35" y="948.22" width="61.86" height="40.41"/></g><g class="cls-94"><text class="cls-16" transform="translate(1825 974)">Item J</text></g><g class="cls-95"><rect class="cls-58" x="1812.35" y="992.17" width="61.86" height="40.41"/></g><g class="cls-96"><text class="cls-16" transform="translate(1824 1018)">Item K</text></g><g class="cls-97"><rect class="cls-61" x="1721.76" y="949.22" width="93.48" height="82.37"/><rect class="cls-62" x="1721.76" y="949.22" width="93.48" height="82.37"/></g><g class="cls-98"><text class="cls-64" transform="translate(1736.02 984.8)">command_X</text><text class="cls-64" transform="translate(1736.02 1002.8)">command_Y</text></g><g class="cls-2"><text class="cls-55" transform="translate(1336.16 165.75)">original CC-<tspan x="102.98" y="0">B</tspan><tspan x="114.99" y="0">Y</tspan><tspan x="126.76" y="0">-SA </tspan></text><text class="cls-55" transform="translate(1499.6 165.75)">http:<tspan class="cls-92" x="41.8" y="0">/</tspan><tspan x="47.08" y="0">/ww</tspan><tspan class="cls-99" x="84.24" y="0">w</tspan><tspan x="97.55" y="0">.b</tspan><tspan x="114.3" y="0">r</tspan><tspan x="121.2" y="0">endang</tspan><tspan x="187.06" y="0">r</tspan><tspan x="193.96" y="0">egg.com/linuxpe</tspan><tspan x="343.1" y="0">r</tspan><tspan x="350.37" y="0">f.html</tspan></text><text class="cls-100" transform="translate(1903.06 165.75)">  </text></g><g class="cls-101"><line class="cls-102" x1="1499.6" y1="167.43" x2="1903.07" y2="167.43"/></g><g class="cls-2"><text class="cls-55" transform="translate(1625.38 195.75)">modiﬁed <tspan x="82.8" y="0">b</tspan><tspan x="93.86" y="0">y </tspan></text><text class="cls-55" transform="translate(1734.26 195.75)">r<tspan x="6.9" y="0">eddit.com/u/</tspan><tspan x="122.9" y="0">r</tspan><tspan x="129.8" y="0">edct</tspan></text></g><g class="cls-103"><line class="cls-102" x1="1734.26" y1="197.43" x2="1903.07" y2="197.43"/></g><g class="cls-104"><text class="cls-40" transform="translate(217.18 426.86)">LINUX </text><text class="cls-40" transform="translate(205.12 447.86)">KERNEL</text></g><g class="cls-105"><g class="cls-2"><polyline class="cls-106" points="266.64 620.99 266.64 619.99 266.64 277 266.64 276"/><line class="cls-107" x1="271.44" y1="275.72" x2="261.84" y2="275.72"/><line class="cls-107" x1="261.84" y1="621.27" x2="271.44" y2="621.27"/></g></g><g class="cls-108"><text class="cls-40" transform="translate(212.29 780.45)">EX<tspan class="cls-99" x="16.64" y="0">P</tspan><tspan x="24.41" y="0">ANDER </tspan></text><text class="cls-40" transform="translate(181.7 801.45)">I<tspan x="4.01" y="0">N</tspan><tspan x="13.53" y="0">TERCONNE</tspan><tspan x="83.48" y="0">C</tspan><tspan x="91.74" y="0">T</tspan></text></g><g class="cls-109"><g class="cls-2"><polyline class="cls-106" points="290.48 843.24 290.48 842.24 290.48 726.73 290.48 725.73"/><line class="cls-107" x1="295.27" y1="725.45" x2="285.67" y2="725.45"/><line class="cls-107" x1="285.67" y1="843.52" x2="295.27" y2="843.52"/></g></g><g class="cls-110"><text class="cls-40" transform="translate(1022 780)">I<tspan x="4.01" y="0">N</tspan><tspan x="13.53" y="0">TER</tspan><tspan x="38.51" y="0">F</tspan><tspan x="46.03" y="0">A</tspan><tspan x="54.83" y="0">CE </tspan></text><text class="cls-40" transform="translate(1022 801)">TRANSPO<tspan x="62.05" y="0">R</tspan><tspan x="70.51" y="0">T</tspan><tspan x="78.35" y="0">S</tspan></text></g><g class="cls-111"><g class="cls-2"><polyline class="cls-106" points="1012.81 843.24 1012.81 842.24 1012.81 726.73 1012.81 725.73"/><line class="cls-107" x1="1017.61" y1="725.45" x2="1008.01" y2="725.45"/><line class="cls-107" x1="1008.01" y1="843.52" x2="1017.61" y2="843.52"/></g></g><g class="cls-112"><text class="cls-113" transform="translate(1091 586)">CPU  </text><text class="cls-40" transform="translate(1054 607)">I<tspan x="4.01" y="0">N</tspan><tspan x="13.53" y="0">TERCONNE</tspan><tspan x="83.48" y="0">C</tspan><tspan x="91.74" y="0">T</tspan></text></g><g class="cls-114"><polyline class="cls-106" points="992.81 561.48 993.81 561.48 1214.3 561.48 1215.3 561.48"/><line class="cls-107" x1="1215.58" y1="566.28" x2="1215.58" y2="556.68"/><line class="cls-107" x1="992.53" y1="556.68" x2="992.53" y2="566.28"/></g><g class="cls-115"><text class="cls-40" transform="translate(1297 427)">MEMO<tspan x="40.19" y="0">R</tspan><tspan x="48.9" y="0">Y </tspan></text><text class="cls-40" transform="translate(1297 448)">BUS</text></g><g class="cls-116"><g class="cls-2"><polyline class="cls-106" points="1286.94 489.65 1286.94 488.65 1286.94 373.14 1286.94 372.14"/><line class="cls-107" x1="1291.74" y1="371.86" x2="1282.14" y2="371.86"/><line class="cls-107" x1="1282.14" y1="489.93" x2="1291.74" y2="489.93"/></g></g><g class="cls-117"><text class="cls-40" transform="translate(778 669)">I/O </text><text class="cls-40" transform="translate(778 690)">BUS</text></g><g class="cls-118"><g class="cls-2"><polyline class="cls-106" points="767.97 709.2 767.97 708.2 767.97 637.96 767.97 636.96"/><line class="cls-107" x1="772.77" y1="636.68" x2="763.17" y2="636.68"/><line class="cls-107" x1="763.17" y1="709.47" x2="772.77" y2="709.47"/></g></g></svg>